      <svg width="104.25" height="48" viewBox="0 0 556 256" fill="none" xmlns="http://www.w3.org/2000/svg" xmlnsXlink="http://www.w3.org/1999/xlink" version="1.1">
    
      <g transform="translate(0, 0)">
      <svg width="256" height="256" viewBox="0 0 256 256" fill="none" xmlns="http://www.w3.org/2000/svg">
          <rect width="256" height="256" fill="#242938" rx="60"/>
          <path fill="#00D8FF" d="M128.001 146.951C138.305 146.951 146.657 138.598 146.657 128.295C146.657 117.992 138.305 109.639 128.001 109.639C117.698 109.639 109.345 117.992 109.345 128.295C109.345 138.598 117.698 146.951 128.001 146.951Z"/><path fill-rule="evenodd" stroke="#00D8FF" stroke-width="8.911" d="M128.002 90.3633C153.05 90.3633 176.319 93.9575 193.864 99.9976C215.003 107.275 228 118.306 228 128.295C228 138.704 214.226 150.423 191.525 157.944C174.363 163.63 151.779 166.598 128.002 166.598C103.624 166.598 80.5389 163.812 63.1834 157.881C41.2255 150.376 28 138.506 28 128.295C28 118.387 40.4096 107.441 61.2515 100.175C78.8617 94.0353 102.705 90.3633 127.998 90.3633H128.002Z" clip-rule="evenodd"/><path fill-rule="evenodd" stroke="#00D8FF" stroke-width="8.911" d="M94.9811 109.438C107.495 87.7402 122.232 69.3783 136.23 57.1971C153.094 42.5206 169.144 36.7728 177.796 41.7623C186.813 46.9623 190.084 64.7496 185.259 88.1712C181.614 105.879 172.9 126.925 161.021 147.523C148.842 168.641 134.897 187.247 121.09 199.315C103.619 214.587 86.7284 220.114 77.8833 215.013C69.3003 210.067 66.0181 193.846 70.1356 172.161C73.6145 153.838 82.3451 131.349 94.977 109.438L94.9811 109.438Z" clip-rule="evenodd"/><path fill-rule="evenodd" stroke="#00D8FF" stroke-width="8.911" d="M95.0123 147.578C82.4633 125.904 73.9194 103.962 70.3531 85.7517C66.0602 63.8109 69.0954 47.0355 77.7401 42.0315C86.7485 36.8163 103.792 42.866 121.674 58.7437C135.194 70.7479 149.077 88.8052 160.99 109.383C173.204 130.481 182.358 151.856 185.919 169.844C190.425 192.608 186.778 210.001 177.941 215.116C169.367 220.08 153.676 214.825 136.945 200.427C122.809 188.263 107.685 169.468 95.0123 147.578Z" clip-rule="evenodd"/></svg>
        </g>
         
    <g transform="translate(300, 0)">
    <rect width="256" height="256" fill="#242938" rx="60"/>
    <svg y='23' width="256" height="206" viewBox="0 0 256 289" fill="none" xmlns="http://www.w3.org/2000/svg">
    
    <path d="M127.999999,288.463771 C124.024844,288.463771 120.314699,287.403728 116.869564,285.548656 L81.6231884,264.612838 C76.32298,261.697724 78.9730854,260.637682 80.5631458,260.107661 C87.7184259,257.72257 89.0434775,257.192547 96.4637688,252.952381 C97.2587979,252.422361 98.3188405,252.687372 99.1138718,253.217392 L126.144927,269.383024 C127.20497,269.913045 128.530021,269.913045 129.325053,269.383024 L235.064182,208.165634 C236.124225,207.635611 236.654245,206.575571 236.654245,205.250519 L236.654245,83.0807467 C236.654245,81.7556929 236.124225,80.6956526 235.064182,80.1656324 L129.325053,19.2132506 C128.26501,18.6832305 126.939959,18.6832305 126.144927,19.2132506 L20.4057954,80.1656324 C19.3457551,80.6956526 18.8157349,82.0207041 18.8157349,83.0807467 L18.8157349,205.250519 C18.8157349,206.31056 19.3457551,207.635611 20.4057954,208.165634 L49.2919247,224.861286 C64.9275364,232.811595 74.7329196,223.536234 74.7329196,214.260871 L74.7329196,93.681159 C74.7329196,92.0910985 76.0579711,90.5010358 77.9130428,90.5010358 L91.4285716,90.5010358 C93.0186343,90.5010358 94.6086948,91.8260873 94.6086948,93.681159 L94.6086948,214.260871 C94.6086948,235.196689 83.2132512,247.387164 63.3374737,247.387164 C57.2422362,247.387164 52.4720502,247.387164 38.9565214,240.761906 L11.1304347,224.861286 C4.24016581,220.886129 5.68434189e-14,213.46584 5.68434189e-14,205.515528 L5.68434189e-14,83.3457557 C5.68434189e-14,75.3954465 4.24016581,67.9751552 11.1304347,64.0000006 L116.869564,2.78260752 C123.494824,-0.927535841 132.505176,-0.927535841 139.130436,2.78260752 L244.869565,64.0000006 C251.759834,67.9751552 256,75.3954465 256,83.3457557 L256,205.515528 C256,213.46584 251.759834,220.886129 244.869565,224.861286 L139.130436,286.078676 C135.685299,287.668739 131.710145,288.463771 127.999999,288.463771 L127.999999,288.463771 Z M160.596274,204.455488 C114.219461,204.455488 104.679089,183.254659 104.679089,165.233955 C104.679089,163.643893 106.004141,162.053832 107.859212,162.053832 L121.639752,162.053832 C123.229813,162.053832 124.554864,163.113872 124.554864,164.703935 C126.674947,178.749484 132.770187,185.639753 160.861283,185.639753 C183.122154,185.639753 192.662526,180.604556 192.662526,168.67909 C192.662526,161.788821 190.012423,156.753624 155.296065,153.308489 C126.409938,150.393375 108.389235,144.033126 108.389235,120.977226 C108.389235,99.5113875 126.409938,86.7908901 156.621119,86.7908901 C190.542443,86.7908901 207.238095,98.4513472 209.358178,123.89234 C209.358178,124.687371 209.093167,125.482403 208.563147,126.277434 C208.033127,126.807454 207.238095,127.337474 206.443064,127.337474 L192.662526,127.337474 C191.337475,127.337474 190.012423,126.277434 189.747412,124.952382 C186.567289,110.376813 178.351966,105.606625 156.621119,105.606625 C132.240165,105.606625 129.325053,114.086957 129.325053,120.447205 C129.325053,128.132506 132.770187,130.5176 165.631471,134.757766 C198.227744,138.997931 213.598344,145.093169 213.598344,167.884058 C213.333333,191.20497 194.252589,204.455488 160.596274,204.455488 L160.596274,204.455488 Z" fill="#539E43"></path>
    </svg>
    </g>
</svg>
  